<?xml version="1.0" standalone="no"?>
<!DOCTYPE svg PUBLIC "-//W3C//DTD SVG 20010904//EN"
 "http://www.w3.org/TR/2001/REC-SVG-20010904/DTD/svg10.dtd">
<svg version="1.0" xmlns="http://www.w3.org/2000/svg"
 width="898.000000pt" height="864.000000pt" viewBox="0 0 898.000000 864.000000"
 preserveAspectRatio="xMidYMid meet">

<g transform="translate(0.000000,864.000000) scale(0.100000,-0.100000)"
fill="#8360c3" stroke="#8360c3">
<path d="M0 4320 l0 -4320 4490 0 4490 0 0 4320 0 4320 -4490 0 -4490 0 0
-4320z m4920 4240 c281 -11 376 -24 587 -76 386 -94 791 -255 1145 -455 797
-449 1494 -1250 1825 -2099 217 -556 308 -1104 283 -1701 -11 -264 -21 -364
-56 -574 -82 -503 -224 -906 -477 -1355 -228 -405 -609 -856 -1002 -1186 -477
-401 -1174 -739 -1782 -864 -409 -85 -1144 -103 -1578 -40 -355 52 -755 180
-1159 370 -379 178 -772 466 -1133 832 -496 502 -783 949 -999 1557 -250 703
-301 1563 -137 2326 99 465 298 939 568 1355 335 518 812 985 1339 1312 435
270 910 454 1455 564 216 43 597 54 1121 34z"/>
<path d="M5260 7908 c-2 -34 2081 -5198 2220 -5505 34 -74 48 -85 21 -15 -11
26 -89 223 -174 437 -256 646 -1403 3486 -1883 4662 -132 324 -182 440 -184
421z"/>
<path d="M4591 7422 c-34 -48 -81 -166 -306 -762 -409 -1084 -498 -1351 -481
-1443 8 -44 28 -57 101 -64 105 -11 191 53 438 330 124 137 202 182 271 153
52 -21 78 -69 73 -131 -11 -152 -117 -246 -782 -695 -431 -290 -544 -379 -752
-591 -313 -319 -447 -673 -389 -1030 20 -124 28 -149 73 -253 99 -230 292
-413 508 -482 110 -36 354 -45 525 -20 196 29 400 109 540 212 331 243 552
593 670 1064 69 275 85 449 83 895 l-2 360 24 -45 c44 -87 532 -1407 620
-1680 80 -249 69 -415 -36 -535 -65 -73 -205 -131 -358 -146 -103 -10 -131
-16 -131 -29 0 -17 236 -24 825 -24 579 1 750 7 750 28 0 5 -29 17 -65 26 -86
21 -143 55 -218 132 -88 92 -126 144 -192 270 -104 200 -161 346 -1003 2564
-322 847 -604 1587 -627 1645 -52 132 -121 279 -131 279 -4 0 -17 -13 -28 -28z
m66 -1102 c270 -715 338 -908 387 -1105 60 -241 61 -252 61 -650 0 -475 -19
-656 -94 -896 -64 -205 -185 -446 -301 -600 -135 -180 -282 -293 -495 -381
l-80 -32 -185 0 c-148 -1 -199 3 -255 18 -119 31 -200 80 -301 181 -76 77 -97
106 -136 185 -53 109 -72 176 -88 313 -31 270 64 589 250 835 70 93 249 269
380 373 52 42 201 154 330 249 274 202 421 320 479 386 62 71 124 202 129 274
2 33 1 75 -2 95 -8 40 -55 99 -97 121 -80 41 -140 3 -404 -257 -117 -114 -224
-213 -239 -219 -51 -19 -117 -8 -138 24 -4 6 -8 27 -8 46 0 38 94 327 208 635
184 500 346 933 359 959 l15 30 25 -60 c13 -32 103 -268 200 -524z"/>
<path d="M1767 6640 c-47 -51 -82 -105 -102 -155 l-16 -40 32 38 c49 58 58 55
215 -64 57 -43 111 -79 119 -79 43 0 -14 66 -144 170 -90 71 -99 85 -74 118
32 45 35 52 20 52 -8 0 -31 -18 -50 -40z"/>
<path d="M1405 6010 c4 -6 50 -32 102 -59 l96 -48 -128 -32 c-151 -38 -195
-55 -195 -75 0 -25 274 -163 304 -153 6 2 -22 21 -62 43 -96 51 -135 77 -136
89 -1 13 73 36 211 66 62 13 113 27 113 30 0 5 -256 130 -293 143 -11 3 -16 2
-12 -4z"/>
<path d="M1071 5245 c-7 -16 -16 -64 -18 -106 l-5 -76 40 -16 c50 -20 181 -46
247 -50 45 -2 50 1 62 25 22 44 36 139 23 152 -16 16 -27 -6 -35 -70 -4 -31
-12 -55 -20 -58 -16 -6 -99 17 -142 39 -15 8 -47 15 -69 15 -23 0 -46 6 -52
13 -6 7 -12 46 -14 87 -3 73 -4 74 -17 45z"/>
<path d="M966 4514 c-8 -22 -6 -145 3 -169 6 -15 9 -8 13 29 8 69 19 75 75 39
26 -17 92 -58 145 -92 53 -33 101 -61 106 -61 15 0 22 39 22 133 0 94 -13 110
-23 27 -10 -87 -12 -88 -113 -24 -135 86 -214 134 -218 134 -2 0 -7 -7 -10
-16z"/>
<path d="M1250 3788 l-65 -21 33 -10 c17 -5 32 -14 32 -18 0 -5 -30 -48 -66
-95 -78 -102 -109 -152 -100 -161 8 -8 124 11 186 31 l45 14 -64 -1 c-35 -1
-65 3 -67 8 -2 6 37 62 86 125 50 63 89 122 88 130 -5 22 -35 22 -108 -2z"/>
<path d="M1060 3740 c20 -13 70 -13 70 0 0 6 -19 10 -42 10 -32 0 -39 -3 -28
-10z"/>
<path d="M1575 3063 c3 -16 16 -38 27 -50 30 -32 17 -68 -32 -93 -21 -11 -48
-20 -59 -20 -10 0 -38 -16 -61 -35 -68 -57 -115 -44 -135 37 -4 14 -15 34 -26
44 -18 16 -19 16 -19 -7 0 -31 60 -149 82 -163 22 -13 57 -1 206 71 62 30 116
62 119 70 7 17 -22 83 -59 135 -33 45 -53 50 -43 11z"/>
<path d="M1815 2436 c-86 -39 -125 -135 -93 -227 15 -45 81 -159 92 -159 12 0
209 145 246 181 44 44 40 75 -16 132 -76 75 -164 103 -229 73z m196 -72 c16
-15 29 -35 29 -45 0 -35 -176 -179 -220 -179 -53 0 -88 77 -65 144 18 50 32
65 90 93 66 31 124 27 166 -13z"/>
<path d="M2361 1844 c-123 -163 -127 -173 -43 -88 l80 82 4 -164 c2 -101 7
-167 14 -174 8 -8 19 -5 40 13 35 29 149 185 141 193 -3 3 -31 -26 -63 -64
-33 -39 -62 -68 -65 -66 -4 2 -10 65 -14 141 -4 76 -10 157 -14 182 l-6 44
-74 -99z"/>
<path d="M3050 1505 c0 -3 27 -18 60 -35 34 -17 64 -38 67 -46 8 -20 -26 -93
-49 -105 -10 -6 -40 -7 -66 -4 l-47 6 38 -21 c21 -12 40 -27 43 -35 7 -16 -31
-105 -44 -105 -6 0 -34 11 -64 25 -29 14 -59 25 -67 25 -28 0 13 -33 76 -62
93 -42 107 -39 142 30 54 108 113 254 104 263 -4 4 -43 21 -86 38 -73 29 -107
37 -107 26z"/>
<path d="M3852 1208 c-6 -7 -18 -32 -27 -54 -19 -48 -41 -60 -125 -70 -77 -9
-95 -30 -88 -105 9 -90 46 -92 55 -2 7 59 14 69 60 78 44 8 53 -3 53 -64 0
-37 -5 -48 -36 -76 l-35 -32 28 -6 c35 -7 59 6 77 42 22 41 79 269 72 286 -7
18 -20 19 -34 3z"/>
<path d="M4490 1165 c0 -2 20 -13 43 -23 50 -22 80 -59 96 -119 16 -57 1 -113
-44 -171 -20 -26 -31 -48 -25 -50 55 -19 130 91 130 190 0 42 -26 103 -57 130
-25 23 -86 48 -118 48 -14 0 -25 -2 -25 -5z"/>
<path d="M4396 1110 c-36 -44 -49 -96 -45 -183 5 -89 19 -110 86 -126 60 -16
75 -1 33 29 -66 47 -89 162 -50 249 32 70 21 84 -24 31z"/>
</g>
</svg>
