<svg xmlns="http://www.w3.org/2000/svg" xmlns:xlink="http://www.w3.org/1999/xlink" width="500" zoomAndPan="magnify" viewBox="0 0 375 374.999991" height="500" preserveAspectRatio="xMidYMid meet" version="1.0"><defs><clipPath id="178277f97c"><path d="M 37.5 37.5 L 337.5 37.5 L 337.5 337.5 L 37.5 337.5 Z M 37.5 37.5 " clip-rule="nonzero"/></clipPath></defs><g clip-path="url(#178277f97c)"><path fill="#8c52ff" d="M 337.519531 187.507812 C 337.519531 207.75 333.554688 227.402344 325.726562 245.898438 C 318.171875 263.761719 307.355469 279.804688 293.585938 293.578125 C 279.808594 307.355469 263.773438 318.164062 245.90625 325.71875 C 227.402344 333.546875 207.757812 337.511719 187.511719 337.511719 C 167.265625 337.511719 147.617188 333.546875 129.117188 325.71875 C 111.257812 318.164062 95.214844 307.347656 81.4375 293.578125 C 67.664062 279.808594 56.851562 263.765625 49.296875 245.898438 C 41.464844 227.402344 37.5 207.757812 37.5 187.507812 C 37.5 167.253906 41.464844 147.609375 49.292969 129.113281 C 56.847656 111.25 67.664062 95.207031 81.433594 81.433594 C 95.203125 67.65625 111.246094 56.847656 129.113281 49.292969 C 147.617188 41.464844 167.261719 37.5 187.507812 37.5 C 207.75 37.5 227.402344 41.464844 245.898438 49.292969 C 249.367188 50.761719 252.761719 52.347656 256.089844 54.058594 L 256.089844 83.125 C 249.792969 78.976562 243.117188 75.40625 236.109375 72.441406 C 220.71875 65.9375 204.367188 62.632812 187.507812 62.632812 C 170.644531 62.632812 154.292969 65.929688 138.90625 72.441406 C 124.039062 78.730469 110.679688 87.730469 99.210938 99.210938 C 87.738281 110.679688 78.734375 124.039062 72.441406 138.90625 C 65.9375 154.292969 62.632812 170.644531 62.632812 187.507812 C 62.632812 204.367188 65.929688 220.71875 72.441406 236.109375 C 78.730469 250.972656 87.730469 264.332031 99.210938 275.800781 C 110.679688 287.273438 124.039062 296.277344 138.90625 302.570312 C 154.292969 309.078125 170.644531 312.378906 187.507812 312.378906 C 204.367188 312.378906 220.71875 309.082031 236.109375 302.570312 C 250.972656 296.285156 264.332031 287.28125 275.800781 275.800781 C 287.273438 264.332031 296.277344 250.972656 302.570312 236.109375 C 309.078125 220.71875 312.378906 204.367188 312.378906 187.507812 C 312.378906 170.644531 309.082031 154.292969 302.570312 138.90625 C 300.601562 134.25 298.363281 129.738281 295.863281 125.382812 L 295.863281 83.773438 C 308.550781 97.015625 318.589844 112.25 325.71875 129.113281 C 333.546875 147.617188 337.519531 167.261719 337.519531 187.507812 Z M 256.097656 187.507812 C 256.097656 205.828125 248.960938 223.046875 236.011719 236.003906 C 223.054688 248.960938 205.835938 256.089844 187.511719 256.089844 C 169.191406 256.089844 151.96875 248.957031 139.015625 236.003906 C 126.058594 223.046875 118.925781 205.828125 118.925781 187.507812 C 118.925781 169.183594 126.0625 151.964844 139.015625 139.007812 C 151.96875 126.050781 169.191406 118.921875 187.511719 118.921875 C 205.835938 118.921875 223.054688 126.058594 236.011719 139.007812 C 238.003906 141.007812 239.867188 143.105469 241.582031 145.296875 L 241.582031 110.9375 C 236.109375 107.0625 230.234375 103.789062 224 101.15625 C 212.4375 96.261719 200.160156 93.785156 187.511719 93.785156 C 174.863281 93.785156 162.585938 96.261719 151.023438 101.15625 C 139.863281 105.878906 129.839844 112.632812 121.238281 121.238281 C 112.632812 129.839844 105.878906 139.863281 101.15625 151.023438 C 96.261719 162.585938 93.785156 174.863281 93.785156 187.511719 C 93.785156 200.160156 96.261719 212.4375 101.15625 224 C 105.878906 235.160156 112.632812 245.183594 121.238281 253.789062 C 129.839844 262.390625 139.863281 269.144531 151.023438 273.867188 C 162.585938 278.761719 174.863281 281.242188 187.511719 281.242188 C 200.160156 281.242188 212.4375 278.761719 224 273.867188 C 235.160156 269.144531 245.183594 262.390625 253.789062 253.789062 C 262.390625 245.183594 269.144531 235.160156 273.867188 224 C 278.761719 212.4375 281.242188 200.160156 281.242188 187.511719 L 256.097656 187.511719 Z M 256.097656 83.128906 L 256.097656 123.644531 C 263.601562 131.695312 269.574219 140.886719 273.863281 151.023438 C 278.753906 162.585938 281.234375 174.863281 281.234375 187.511719 L 281.234375 104.992188 C 279.488281 103.015625 277.683594 101.089844 275.808594 99.214844 C 269.746094 93.148438 263.15625 87.773438 256.097656 83.128906 Z M 275.800781 99.210938 C 277.675781 101.082031 279.488281 103.011719 281.230469 104.988281 L 281.230469 70.367188 C 273.40625 64.09375 265.011719 58.648438 256.089844 54.0625 L 256.089844 83.128906 C 263.15625 87.773438 269.746094 93.148438 275.800781 99.210938 Z M 281.234375 187.507812 C 281.234375 174.859375 278.753906 162.582031 273.863281 151.019531 C 269.574219 140.882812 263.601562 131.683594 256.097656 123.636719 L 256.097656 187.507812 Z M 281.234375 187.507812 " fill-opacity="1" fill-rule="nonzero"/></g></svg>